<?xml version="1.0" standalone="no"?>
<!DOCTYPE svg PUBLIC "-//W3C//DTD SVG 20010904//EN"
 "http://www.w3.org/TR/2001/REC-SVG-20010904/DTD/svg10.dtd">
<svg version="1.0" xmlns="http://www.w3.org/2000/svg"
 width="80.000000pt" height="80.000000pt" viewBox="0 0 80.000000 80.000000"
 preserveAspectRatio="xMidYMid meet">
<metadata>
Created by potrace 1.10, written by Peter Selinger 2001-2011
</metadata>
<g transform="translate(0.000000,80.000000) scale(0.100000,-0.100000)"
fill="#000000" stroke="none">
<path d="M0 789 c0 -5 5 -7 10 -4 5 3 10 8 10 11 0 2 -4 4 -10 4 -5 0 -10 -5
-10 -11z"/>
<path d="M767 792 c9 -6 13 -102 13 -392 l1 -384 -384 -1 c-212 0 -389 -3
-393 -8 -4 -4 174 -7 396 -7 l402 0 -3 393 c-4 378 -6 407 -34 407 -5 0 -5 -4
2 -8z"/>
<path d="M337 746 c-56 -13 -108 -52 -144 -109 -15 -23 -40 -56 -55 -73 -16
-17 -31 -47 -35 -67 -4 -29 -1 -40 21 -61 14 -15 39 -29 55 -32 16 -4 28 -11
26 -18 -1 -6 -9 -43 -15 -83 -10 -57 -17 -72 -33 -77 -10 -2 -17 -11 -15 -18
6 -17 55 -23 74 -7 12 10 14 6 14 -25 0 -33 3 -37 22 -34 20 3 23 8 20 42 -2
24 0 36 6 32 11 -7 10 -42 -2 -92 -8 -30 -10 -32 -57 -31 -59 1 -84 -17 -55
-39 21 -15 91 -18 316 -15 105 1 170 13 170 30 0 17 -27 31 -56 31 -18 0 -36
5 -39 10 -9 14 4 50 18 50 7 0 20 19 31 41 14 32 17 55 13 102 -3 34 -8 69
-11 77 -4 10 9 41 34 78 l40 63 -34 32 c-18 18 -36 43 -40 57 -24 103 -144
164 -269 136z m139 -42 c69 -23 80 -38 53 -65 -21 -21 -21 -25 -8 -63 11 -33
19 -42 42 -44 20 -3 32 -13 44 -38 16 -33 10 -62 -7 -34 -17 28 -19 4 -7 -92
12 -92 12 -96 -8 -109 -27 -17 -345 -27 -345 -10 0 6 17 11 40 11 45 0 45 -1
26 87 -11 52 -11 63 0 67 19 7 42 -41 52 -106 6 -44 11 -54 30 -56 19 -3 22 1
22 26 0 17 -6 32 -12 34 -10 4 -10 10 -1 31 19 41 33 32 33 -22 0 -54 15 -74
52 -69 15 2 22 9 22 21 -1 9 4 17 10 17 7 0 13 13 13 29 0 20 -4 28 -14 24 -8
-3 -13 2 -13 12 0 11 7 15 22 13 18 -2 23 -10 25 -47 3 -51 6 -56 28 -47 17 6
15 28 -9 126 -10 39 -9 49 7 78 11 18 18 34 16 36 -8 7 -185 -15 -206 -26 -32
-16 -53 -3 -53 31 0 34 -21 59 -61 73 -47 16 -48 47 -4 85 21 18 40 31 42 29
2 -2 16 0 31 4 43 13 88 11 138 -6z m102 -86 c17 -17 15 -48 -3 -55 -20 -7
-23 -3 -31 35 -7 34 10 44 34 20z m-311 -58 c30 0 46 -24 38 -59 -9 -40 19
-56 73 -41 60 17 182 25 182 11 0 -6 -8 -11 -17 -12 -63 -3 -228 -27 -313 -46
-21 -5 -23 -3 -12 8 17 18 15 59 -3 59 -8 0 -15 -8 -15 -19 0 -30 -26 -46 -47
-30 -45 35 -44 73 2 129 19 23 35 47 35 53 1 7 13 -3 29 -20 15 -18 37 -33 48
-33z m335 -2 c-7 -7 -12 -8 -12 -2 0 6 3 14 7 17 3 4 9 5 12 2 2 -3 -1 -11 -7
-17z m38 -37 c0 -17 -18 -21 -24 -6 -3 9 0 15 9 15 8 0 15 -4 15 -9z m-149
-95 c-9 -11 -9 -16 0 -22 7 -4 14 -3 16 2 2 5 8 16 13 24 8 13 11 12 24 -5 21
-27 20 -38 -3 -30 -11 3 -22 1 -25 -4 -4 -5 -29 -9 -57 -7 -28 1 -53 -2 -55
-6 -3 -4 -14 -8 -25 -8 -14 0 -19 7 -19 25 0 26 15 34 23 13 3 -8 6 -6 6 5 1
18 21 24 21 6 0 -8 5 -8 15 1 12 10 18 10 30 0 12 -10 15 -10 15 4 0 9 7 16
16 16 13 0 14 -3 5 -14z m-241 -30 c0 -2 3 -12 7 -21 5 -15 3 -16 -15 -6 -25
13 -29 31 -7 31 8 0 15 -2 15 -4z m242 -64 c9 -35 -5 -76 -25 -69 -19 6 -30
57 -18 84 15 32 33 25 43 -15z m-248 18 c26 -9 35 -34 16 -45 -14 -9 -50 18
-50 37 0 21 1 21 34 8z m-5 -87 c-7 -10 -15 -20 -16 -22 -2 -2 -3 5 -3 17 0
14 6 22 16 22 14 0 15 -3 3 -17z m345 -48 c-8 -19 -27 -24 -115 -30 -41 -3
-86 -7 -101 -11 -39 -8 -68 4 -68 28 0 19 4 20 83 15 45 -4 102 -2 127 2 70
13 80 13 74 -4z m-389 -5 c8 -13 -5 -13 -25 0 -13 8 -13 10 2 10 9 0 20 -4 23
-10z m352 -62 c-2 -7 -17 -12 -32 -11 -22 2 -26 -1 -22 -17 3 -11 1 -23 -4
-26 -17 -10 -9 -24 15 -24 29 0 42 15 21 24 -8 3 -15 10 -15 16 0 16 38 -12
43 -32 7 -25 -22 -30 -108 -19 -38 4 -55 9 -37 10 35 1 72 16 72 29 0 4 -32 5
-71 2 -74 -6 -83 -2 -73 24 4 11 20 16 53 17 25 1 57 4 69 7 46 13 94 13 89 0z
m-217 -13 c0 -8 -9 -15 -20 -15 -25 0 -26 17 -2 23 9 3 18 5 20 6 1 0 2 -6 2
-14z m-12 -61 c-10 -10 -28 6 -28 24 0 15 1 15 17 -1 9 -9 14 -19 11 -23z
m282 -5 c0 -5 -7 -9 -15 -9 -9 0 -12 6 -9 15 6 15 24 11 24 -6z m-320 -10 c14
0 19 -3 12 -6 -19 -7 -62 6 -62 19 0 9 3 9 12 0 7 -7 23 -12 38 -13z m87 8 c0
-7 -11 -14 -24 -15 -20 -2 -22 0 -11 13 16 18 35 19 35 2z"/>
<path d="M210 546 c0 -9 -6 -16 -12 -16 -7 0 -2 -6 12 -13 14 -7 29 -22 35
-35 9 -19 25 -31 25 -17 0 8 -22 46 -42 74 -14 18 -18 20 -18 7z"/>
<path d="M266 532 c6 -4 14 -14 17 -22 4 -10 6 -8 6 8 1 15 -5 22 -16 22 -11
0 -14 -3 -7 -8z"/>
<path d="M142 518 c-13 -13 -16 -38 -4 -38 13 1 42 27 42 39 0 15 -23 14 -38
-1z"/>
<path d="M430 400 c0 -5 5 -10 10 -10 6 0 10 5 10 10 0 6 -4 10 -10 10 -5 0
-10 -4 -10 -10z"/>
<path d="M460 316 c0 -14 5 -28 10 -31 6 -4 10 7 10 24 0 17 -4 31 -10 31 -5
0 -10 -11 -10 -24z"/>
</g>
</svg>
